<?xml version="1.0" encoding="utf-8"?>
<!-- Generator: Adobe Illustrator 14.0.0, SVG Export Plug-In . SVG Version: 6.00 Build 43363)  -->
<!DOCTYPE svg PUBLIC "-//W3C//DTD SVG 1.1//EN" "http://www.w3.org/Graphics/SVG/1.1/DTD/svg11.dtd">
<svg version="1.1" id="Layer_1" xmlns="http://www.w3.org/2000/svg" xmlns:xlink="http://www.w3.org/1999/xlink" x="0px" y="0px"
	 width="1000px" height="215px" viewBox="0 0 1000 215" enable-background="new 0 0 1000 215" xml:space="preserve">
<g>
	<g>
		<path d="M0.113,6.549C-11.324,32.583-14.972,63.074-16.298,91.27c-0.668,14.212,1.214,28.561,5.479,42.124
			c3.781,12.025,9.959,25.185,20.341,32.823c18.855,13.873,45.377-1.204,59.499-14.913c20.507-19.908,32.25-46.553,41.532-73.108
			c2.495-7.137,4.817-14.331,6.885-21.604c1.935-6.804,2.486-13.958,5.017-20.595c5.041-13.223,23.773-11.492,34.338-7.763
			c21.003,7.411,29.458,28.368,28.519,49.116c-0.998,22.031-9.453,43.473-17.313,63.808c-6.655,17.217-15.422,35.355-16.908,54.012
			c-1.859,23.346,27.864,19.724,42.41,14.779c22.771-7.739,42.081-24.701,58.763-41.467c40.118-40.318,65.514-90.525,80.6-145.021
			c2.988-10.792,6.147-21.81,7.441-32.96c0.921-7.939,1.719-15.896,3.639-23.674c1.739-7.044,5.533-17.776,14.761-14.891
			c10.303,3.221,17.6,14.925,21.762,24.145c9.123,20.209,9.92,43.947,9.409,65.755c-0.778,33.212-9.144,65.732-13.512,98.54
			c-1.842,13.835-3.378,28.088-2.088,42.041c0.808,8.735,3.397,17.446,9.262,24.138c14.688,16.758,43.407,12.232,62.06,6.852
			c14.112-4.071,26.673-11.485,39.188-18.968c12.183-7.284,23.589-15.807,34.349-25.048c21.937-18.842,40.732-41.201,56.928-65.095
			c8.947-13.201,16.687-27.309,24.2-41.361c3.692-6.905,7.072-13.933,10.534-20.947c3.624-7.34,9.793-18.471,19.177-17.883
			c11.134,0.698,19.869,14.135,24.824,22.795c7.531,13.166,8.991,29.583,9.397,44.415c0.658,24.014-2.447,48.19,1.683,72.042
			c1.481,8.557,4.396,17.25,10.614,23.544c6.207,6.281,15.045,7.754,23.511,7.324c23.399-1.19,43.782-17.968,59.212-34.136
			c18.138-19.007,32.805-41.742,42.646-66.074c5.766-14.255,9.827-29.154,13.592-44.04c3.819-15.104,6.274-31.413,12.092-45.893
			c1.177-2.93,2.962-5.767,5.719-7.419c3.655-2.193,7.989,0.49,10.953,2.587c6.678,4.725,10.989,15.054,14.034,22.333
			c6.032,14.422,7.86,31.219,9.559,46.644c3.55,32.244,2.352,65.468,1.093,97.834c-0.926,23.824-3.795,51.729,9.758,72.806
			c12.714,19.771,35.751,13.949,52.729,3.576c21.972-13.424,39.899-32.535,54.088-53.866c31.93-48,45.742-107.775,48.498-164.696
			c0.57-11.767-2.134-24.202,0.506-35.763c0.606-2.659,1.605-5.611,4.592-5.701c1.895-0.057,3.761,0.384,5.512,1.068
			c3.362,1.312,5.766,4.266,7.543,7.284c4.192,7.12,5.123,16.22,5.656,24.289c0.558,8.444,0.233,16.944-0.332,25.378
			c-0.598,8.913-1.55,17.772-1.931,26.702c-0.661,15.538-0.469,33.108-8.678,46.887c-0.557,0.935,1.412,0.965,1.85,0.23
			c10.914-18.321,7.951-42.449,9.806-62.893c1.407-15.505,2.603-31.335,0.112-46.793c-1.082-6.711-3.113-13.873-7.887-18.935
			c-3.034-3.218-10.16-6.464-14.602-4.316c-2.736,1.323-3.652,6.897-4.12,9.492c-1.06,5.89-0.451,12.102-0.041,18.025
			c1.07,15.458-0.77,31.278-2.678,46.611c-6.997,56.228-25.876,114.468-64.479,157.14c-8.899,9.837-19.013,18.565-30.008,25.979
			c-10.196,6.873-22.521,13.334-35.186,12.205c-14.081-1.255-21.947-14.94-25.649-27.095c-3.976-13.053-4.013-27.168-3.726-40.685
			c0.644-30.265,2.174-60.521,1.175-90.803c-0.536-16.249-2.113-32.466-5.388-48.401c-1.48-7.207-2.601-14.102-5.184-21.057
			c-2.52-6.784-6.064-13.163-10.09-19.158c-4.515-6.727-13.879-12.682-20.972-6.112c-2.883,2.671-4.514,6.882-5.564,10.56
			c-2.225,7.786-4.188,15.651-6.134,23.511c-7.742,31.269-15.27,62.513-32.036,90.407c-13.293,22.116-30.553,43.217-51.938,57.911
			c-18.315,12.585-50.127,22.455-62.169-3.023c-4.212-8.911-5.182-19.28-5.812-28.984c-0.796-12.265-0.493-24.494-0.142-36.771
			c0.749-26.184,0.596-53.805-16.362-75.319c-5.422-6.878-13.271-14.043-22.662-12.988c-4.639,0.521-7.305,3.385-10.107,6.801
			c-4.755,5.794-7.756,12.31-11.086,18.946c-14.504,28.907-30.772,56.864-51.218,82c-18.908,23.246-41.08,43.941-66.347,60.122
			c-25.125,16.091-56.907,32.245-87.618,24.024c-23.767-6.361-25.582-31.411-24.447-52.045
			c1.878-34.14,10.721-67.445,14.362-101.383c2.444-22.78,2.402-46.645-2.697-69.075c-2.336-10.278-6.197-20.351-12.481-28.879
			c-4.161-5.646-11.476-13.184-19.056-13.359c-13.842-0.32-15.672,22.305-16.894,31.861c-3.044,23.809-9.202,46.836-17.077,69.536
			c-18.468,53.231-50.032,101.928-94.453,137.104c-10.507,8.32-22.042,15.634-34.698,20.189c-10.311,3.711-28.092,7.414-36.83-1.416
			c-6.769-6.839-2.226-20.076-0.149-27.966c2.434-9.246,6.046-18.198,9.502-27.097c7.792-20.062,16.05-40.191,19.986-61.447
			c3.344-18.062,2.661-38.029-10.423-52.208c-11.504-12.466-35.246-20.747-49.94-8.98c-3.386,2.711-4.941,6.546-6.097,10.593
			c-2.104,7.366-3.151,14.939-5.365,22.303c-4.542,15.109-9.877,30.084-16.541,44.391c-12.05,25.872-30.604,53.014-59.302,61.672
			c-33.74,10.178-47.95-30.281-51.442-56.318c-2.328-17.354,0.005-34.97,2.225-52.213C-8.906,41.816-5.414,23.569,1.962,6.778
			C2.411,5.757,0.462,5.753,0.113,6.549L0.113,6.549z"/>
	</g>
</g>
<g>
	<g>
		<path d="M58.389,65.831c16.238-21.402,40.84-35.894,64.938-46.838c27.639-12.552,56.86-14.549,86.648-16.998
			c9.891-0.813,20.709-2.441,30.18,1.371c1.799,0.724,6.232,2.973,5.175,5.498c-1.158,2.766-2.525,5.441-3.944,8.081
			c-3.347,6.227-7.462,12.016-11.823,17.566c-16.182,20.59-36.991,36.927-55.401,55.393c-10.819,10.852-22.893,20.506-31.625,33.274
			c-2.521,3.687-6.627,10.093-4.16,14.748c1.575,2.973,8.434,0.796,11.153,0.516c6.689-0.689,13.316-1.959,19.86-3.482
			c27.597-6.424,53.467-19.132,78.444-32.172c26.258-13.709,52.333-27.758,78.689-41.285c26.638-13.672,53.457-27.217,80.74-39.563
			c12.693-5.744,25.249-11.776,38.249-16.812c6.742-2.612,13.629-4.823,20.634-6.614c3.985-1.019,8.032-1.777,12.099-2.382
			c4.174-0.621,2.139,4.224,1.661,6.934c-2.299,13.019-8.718,25.102-15.278,36.417c-6.181,10.66-12.634,21.21-19.045,31.733
			c-12.322,20.225-28.724,42.002-28.235,66.831c0.006,0.314,0.153,0.448,0.422,0.583c25.238,12.557,53.189,5.64,78.839-1.812
			c29.179-8.478,58.107-17.363,86.724-27.608c58.165-20.824,115.37-44.591,175.171-60.511c7.126-1.897,14.708-3.068,21.632-5.573
			c8.138-2.945,16.653-4.715,25.258-5.528c4.201-0.396,8.433-0.405,12.645-0.248c4.926,0.184,8.729,0.153,11.682,4.497
			c4.333,6.376,5.118,13.986,3.395,21.349c-0.8,3.413-2.82,6.3-3.471,9.705c-0.739,3.876-1.792,7.695-2.91,11.477
			c-2.153,7.28-4.877,14.389-7.522,21.5c-5.068,13.624-10.004,27.393-11.209,41.984c-0.031,0.369,0.308,0.606,0.646,0.635
			c23.173,1.921,43.54-15.308,61.43-27.619c25.642-17.646,52.29-33.647,79.951-47.925c14.179-7.319,28.824-13.337,44.145-17.831
			c11.597-3.401,25.714-8.277,37.039-1.597c14.472,8.536,10.812,31.993,9.015,45.676c-0.721,5.48-1.609,10.937-2.319,16.418
			c-0.128,0.993,1.845,0.734,1.959-0.145c2.049-15.827,6.159-32.621,2.482-48.502c-1.511-6.524-5.168-12.226-11.154-15.411
			c-8.365-4.451-17.988-2.65-26.7-0.596c-57.079,13.459-105.377,49.645-153.501,81.277c-11.286,7.419-23.978,14.505-37.785,15.009
			c-3.013,0.11-3.216-0.207-2.93-2.939c0.178-1.703,0.461-3.393,0.74-5.081c0.562-3.398,1.394-6.75,2.274-10.078
			c2.074-7.836,4.947-15.457,7.767-23.048c5.065-13.64,8.841-27.582,13.505-41.293c1.703-5.006,1.82-10.278,0.672-15.397
			c-0.605-2.697-4.069-12.201-7.231-12.612c-14.447-1.875-28.768-0.774-42.773,3.224c-14.922,4.26-30.018,7.976-44.94,12.314
			c-29.157,8.478-57.786,18.694-86.252,29.231c-57.513,21.29-114.87,43.685-174.509,58.473c-14.646,3.632-29.821,5.683-44.785,2.85
			c-3.814-0.723-7.504-1.953-11.106-3.375c-4.243-1.674-4.485-3.306-4.166-7.568c0.539-7.177,2.848-14.147,5.552-20.765
			c5.167-12.646,12.763-24.213,19.952-35.768c7.035-11.308,13.845-22.795,20.642-34.249c8.446-14.234,16.055-29.49,17.237-46.256
			c0.034-0.475-0.492-0.686-0.895-0.64c-29.174,3.332-56.253,17.382-82.469,29.744C369.958,37.94,340.71,52.478,311.74,67.547
			C285.984,80.945,260.512,94.939,234.584,108c-26.235,13.215-53.879,25.115-83.251,28.829c-3.252,0.412-6.522,0.654-9.795,0.831
			c-1.9,0.104-1.893-2.1-1.843-3.557c0.125-3.693,2.498-7.37,4.462-10.348c4.848-7.35,11.226-13.746,17.486-19.883
			c13.865-13.591,28.185-26.738,42.318-40.05c9.612-9.054,18.953-18.419,27.221-28.734c3.565-4.447,6.815-9.133,9.793-13.99
			c1.105-1.802,8.014-12.147,6.74-13.926c-4.837-6.758-14.051-7.466-21.679-7.559c-10.62-0.128-21.531,1.231-32.112,2.019
			c-27.352,2.037-53.512,7.432-78.296,19.419C93.712,31.651,71.66,45.627,56.77,65.253C56.025,66.235,57.851,66.54,58.389,65.831
			L58.389,65.831z"/>
	</g>
</g>
<g>
	<g>
		<g>
			<g>
				<path fill="#4A285A" d="M405.534,69.969c11.49-5.053,28.588-13.641,48.872-20.748c9.262-3.144,19.303-6.143,28.783-7.625
					c9.427-1.585,18.668-0.889,23.182,2.37c4.512,2.74,5.628,7.919,8.545,14.456c2.35,5.874,4.321,10.517,5.807,12.883l-0.712-2.454
					c-0.688-1.081-1.964-4.021-3.837-8.668c-0.914-2.408-2.087-5.073-3.395-8.358c-1.125-2.825-2.202-4.917-4.39-7.009
					c-3.65-3.847-12.261-5.475-21.841-4.301c-9.582,1.02-19.958,4.017-30.078,7.251c-22.019,7.614-36.934,15.155-45.981,18.828
					c-9.021,3.838-12.135,4.437-9.669,2.056l-8.283,4.43C388.947,76.579,393.26,75.479,405.534,69.969z"/>
				<path fill="#4A285A" d="M367.838,106.897l2.942-2.01c-0.371-0.546,8.656-7.623,24.142-19.716
					c15.638-11.751,37.405-29.736,67.536-43.577c14.883-6.52,30.33-12.027,44.247-8.401c6.865,1.826,12.095,6.77,14.855,12.082
					c2.733,5.286,4.875,10.265,6.759,14.811c7.04,18.344,12.821,28.364,12.345,28.71c2.917,4.559,6.365,8.692,10.021,12.677
					c0.711-0.69-11.613-14.245-20.146-37.743c-2.359-5.746-5.003-11.882-8.153-18.119c-3.133-6.488-9.663-11.901-17.285-13.363
					c-15.366-2.762-30.153,3.462-42.845,8.893c-25.797,11.5-48.851,29.25-66.095,42.435
					C378.996,96.977,367.273,106.042,367.838,106.897z"/>
				<path fill="#4A285A" d="M522.439,32.486c-10.594-8.697-25.033-7.949-35.409-4.475c-10.917,3.419-20.563,9.088-29.697,15.004
					c-33.097,22.76-55.96,51.184-46.869,45.557l5.45-5.231c-2.966,1.571-1.233-1.54,5.576-8.906
					c6.945-7.196,18.498-19.214,38.285-32.171c9.121-5.795,18.781-11.284,29.763-14.304c10.411-3.254,25.207-2.602,34.569,6.775
					c2.438,2.375,4.34,4.883,5.821,7.297c1.186,1.874,2.285,3.772,3.295,5.466c1.971,3.406,3.469,6.315,4.687,8.688
					c2.376,4.76,3.595,7.502,3.947,8.716l1.324,2.083c-0.676-2.334-2.365-6.117-5.13-11.693c-1.478-2.822-3.061-6.015-5.277-9.666
					C530.914,42.47,527.885,36.834,522.439,32.486z"/>
				<g>
					<path fill="#4A285A" d="M502.989,34.69c-0.537,2.002-12.933,2.795-28.466,9.299c-15.643,6-28.423,11.499-29.699,9.362
						c-1.229-1.992,10.018-11.171,26.592-17.546C488.08,28.71,503.886,31.821,502.989,34.69z"/>
					<path fill="#4F3966" d="M501.019,34.311c-0.347,1.921-11.705,3.101-25.731,8.765c-14.112,5.315-25.787,9.988-26.855,8.098
						c-1.094-1.877,9.178-9.842,24.119-15.483C487.571,29.563,501.587,31.826,501.019,34.311z"/>
					<path fill="#544972" d="M499,34.05c-0.187,1.776-10.428,3.247-22.944,8.116c-12.603,4.63-23.074,8.621-23.979,6.873
						c-0.903-1.656,8.315-8.561,21.602-13.452C487.038,30.361,499.318,31.909,499,34.05z"/>
					<path fill="#58597F" d="M496.969,33.899c-0.063,1.599-9.125,3.255-20.136,7.361c-11.01,3.965-20.359,7.281-21.074,5.713
						c-0.749-1.468,7.416-7.281,19.045-11.481C486.506,31.119,497.109,32.081,496.969,33.899z"/>
					<path fill="#5D688D" d="M494.909,33.849c0.026,1.381-7.791,3.118-17.279,6.512c-9.513,3.293-17.499,6.012-18.135,4.654
						c-0.602-1.249,6.449-6.137,16.444-9.606C485.964,31.821,494.922,32.317,494.909,33.849z"/>
					<path fill="#62799D" d="M492.853,33.888c0.082,1.152-6.466,2.874-14.417,5.574c-7.971,2.677-14.654,4.782-15.163,3.66
						c-0.493-1.061,5.471-4.993,13.795-7.793C485.414,32.494,492.786,32.63,492.853,33.888z"/>
					<path fill="#668BAF" d="M490.777,34.009c0.111,0.939-5.119,2.473-11.518,4.571c-6.414,2.061-11.78,3.611-12.168,2.712
						c-0.377-0.858,4.456-3.879,11.111-6.021C484.863,33.089,490.674,33.039,490.777,34.009z"/>
					<path fill="#6A9FC2" d="M488.708,34.205c0.115,0.71-3.799,1.99-8.615,3.49c-4.834,1.502-8.869,2.533-9.141,1.856
						c-0.265-0.649,3.401-2.787,8.377-4.334C484.3,33.669,488.599,33.5,488.708,34.205z"/>
					<path fill="#6DB3D7" d="M486.641,34.466c0.095,0.471-2.489,1.397-5.697,2.359c-3.227,0.961-5.924,1.54-6.087,1.096
						c-0.164-0.443,2.307-1.756,5.601-2.737C483.735,34.201,486.55,34.01,486.641,34.466z"/>
					<path fill="#71CDF4" d="M484.577,34.789c0.054,0.223-1.195,0.73-2.778,1.172c-1.575,0.448-2.913,0.679-2.982,0.465
						c-0.072-0.225,1.164-0.813,2.755-1.266C483.172,34.713,484.523,34.564,484.577,34.789z"/>
				</g>
				<g>
					<g>
						<path fill="#4A285A" d="M344.382,121.689c1.043,1.739-8.816,9.682-23.28,15.523c-14.493,5.892-27.414,6.58-27.746,4.49
							c-0.372-2.053,11.17-5.948,24.913-11.547C332.031,124.61,343.292,119.817,344.382,121.689z"/>
						<path fill="#4F3966" d="M297.527,140.652c-0.401-1.877,9.617-5.649,21.695-10.596c12.068-4.967,22.045-8.996,23-7.319
							c0.928,1.595-7.801,8.454-20.418,13.652C309.141,141.569,297.889,142.478,297.527,140.652z"/>
						<path fill="#544972" d="M301.656,139.472c-0.405-1.634,8.118-5.212,18.513-9.536c10.388-4.352,19.071-7.625,19.884-6.164
							c0.828,1.465-6.757,7.248-17.561,11.777C311.658,140.051,302.04,141.102,301.656,139.472z"/>
						<path fill="#58597F" d="M305.742,138.154c-0.398-1.416,6.66-4.658,15.378-8.354c8.737-3.662,16.049-6.328,16.767-5.001
							c0.684,1.249-5.67,6.104-14.711,9.897C314.142,138.522,306.127,139.565,305.742,138.154z"/>
						<path fill="#5D688D" d="M309.791,136.753c-0.382-1.214,5.24-4.062,12.284-7.09c7.06-2.977,13.032-5.012,13.619-3.893
							c0.583,1.102-4.568,5.006-11.838,8.074C316.597,136.962,310.157,137.936,309.791,136.753z"/>
						<path fill="#62799D" d="M313.796,135.234c-0.34-0.976,3.858-3.37,9.221-5.703c5.387-2.317,10.017-3.719,10.488-2.792
							c0.478,0.933-3.47,3.888-8.989,6.262C319.02,135.392,314.14,136.231,313.796,135.234z"/>
						<path fill="#668BAF" d="M317.747,133.598c-0.296-0.778,2.536-2.561,6.229-4.205c3.718-1.603,6.946-2.488,7.328-1.713
							c0.355,0.72-2.326,2.842-6.117,4.476C321.422,133.831,318.043,134.378,317.747,133.598z"/>
						<path fill="#6A9FC2" d="M321.659,131.892c-0.238-0.575,1.233-1.758,3.278-2.64c2.044-0.882,3.875-1.247,4.147-0.67
							c0.259,0.547-1.16,1.832-3.233,2.728C323.776,132.204,321.896,132.465,321.659,131.892z"/>
						<path fill="#6DB3D7" d="M325.535,130.078c-0.167-0.374-0.007-0.807,0.365-0.968c0.355-0.155,0.798-0.003,0.969,0.372
							c0.169,0.37,0.001,0.828-0.357,0.985C326.136,130.63,325.701,130.452,325.535,130.078z"/>
						<path fill="#71CDF4" d="M329.349,128.169c0.085,0.18-0.895,0.822-2.199,1.438c-1.296,0.615-2.45,0.895-2.525,0.722
							c-0.084-0.192,0.935-0.767,2.226-1.379C328.148,128.336,329.263,127.989,329.349,128.169z"/>
					</g>
					<g>
						<path fill="#4A285A" d="M265.655,144.7c0.103,1.908-11.356,3.742-25.183,1.331c-13.823-2.327-23.984-7.545-23.375-9.268
							c0.614-1.835,11.381,0.347,24.513,2.544C254.719,141.606,265.596,142.845,265.655,144.7z"/>
						<path fill="#4F3966" d="M263.579,144.614c0.055,1.616-10.018,3.204-22.175,1.104c-12.174-1.94-21.188-6.397-20.685-7.931
							c0.53-1.689,10.055,0.036,21.674,1.878C253.979,141.679,263.557,142.843,263.579,144.614z"/>
						<path fill="#544972" d="M261.507,144.431c0.014,1.476-8.68,2.694-19.178,0.973c-10.502-1.679-18.398-5.267-17.963-6.711
							c0.421-1.439,8.739-0.275,18.812,1.33C253.235,141.679,261.514,142.896,261.507,144.431z"/>
						<path fill="#58597F" d="M259.44,144.25c-0.019,1.33-7.336,2.185-16.193,0.838c-8.87-1.322-15.564-4.292-15.221-5.537
							c0.348-1.293,7.389-0.439,15.937,0.83C252.491,141.68,259.467,142.949,259.44,144.25z"/>
						<path fill="#5D688D" d="M257.375,144.068c-0.037,1.084-5.995,1.737-13.216,0.703c-7.209-1.087-12.731-3.339-12.458-4.441
							c0.264-1.083,6.065-0.644,13.048,0.409C251.739,141.741,257.422,142.901,257.375,144.068z"/>
						<path fill="#62799D" d="M255.321,143.793c-0.053,0.936-4.664,1.409-10.252,0.647c-5.574-0.815-9.877-2.5-9.672-3.432
							c0.197-0.896,4.718-0.721,10.145,0.074C250.979,141.824,255.373,142.859,255.321,143.793z"/>
						<path fill="#668BAF" d="M253.269,143.518c-0.06,0.777-3.329,1.1-7.292,0.568c-3.954-0.547-7.018-1.736-6.881-2.447
							c0.144-0.755,3.372-0.767,7.242-0.23C250.215,141.929,253.322,142.808,253.269,143.518z"/>
						<path fill="#6A9FC2" d="M251.218,143.241c-0.053,0.562-1.987,0.778-4.334,0.493c-2.353-0.249-4.154-1.068-4.066-1.604
							c0.092-0.564,2.01-0.642,4.324-0.397C249.45,142.013,251.269,142.692,251.218,143.241z"/>
						<path fill="#6DB3D7" d="M249.189,142.88c0.027-0.247-0.545-0.518-1.27-0.605c-0.73-0.089-1.349,0.037-1.382,0.283
							c-0.033,0.246,0.536,0.518,1.272,0.607C248.54,143.254,249.162,143.126,249.189,142.88z"/>
						<path fill="#71CDF4" d="M247.154,142.515c0.023-0.177,0.741-0.234,1.601-0.13c0.856,0.104,1.534,0.331,1.516,0.508
							c-0.019,0.179-0.73,0.239-1.591,0.135C247.815,142.923,247.131,142.692,247.154,142.515z"/>
					</g>
					<g>
						<path fill="#4A285A" d="M186.079,124.312c-0.694,1.516-10.183-1.44-20.776-7.229c-10.599-5.77-18.28-11.896-17.443-13.322
							c0.85-1.448,9.858,2.327,20.319,8.021C178.623,117.489,186.776,122.8,186.079,124.312z"/>
						<path fill="#4F3966" d="M184.561,123.475c-0.626,1.343-9.027-1.271-18.408-6.39c-9.394-5.097-16.215-10.511-15.465-11.795
							c0.76-1.303,8.764,1.988,18.046,7.024C177.994,117.367,185.205,122.104,184.561,123.475z"/>
						<path fill="#544972" d="M183.055,122.621c-0.568,1.196-7.873-1.102-16.052-5.534c-8.195-4.42-14.143-9.146-13.483-10.289
							c0.672-1.163,7.664,1.675,15.769,6.046C177.374,117.226,183.631,121.414,183.055,122.621z"/>
						<path fill="#58597F" d="M181.547,121.768c-0.506,1.048-6.711-0.925-13.691-4.688c-6.986-3.767-12.073-7.767-11.496-8.773
							c0.579-1.012,6.571,1.331,13.49,5.061C176.757,117.091,182.055,120.722,181.547,121.768z"/>
						<path fill="#5D688D" d="M180.043,120.915c-0.434,0.885-5.567-0.747-11.337-3.847c-5.777-3.092-9.99-6.408-9.499-7.275
							c0.49-0.866,5.472,1.03,11.199,4.096C176.126,116.96,180.489,120.012,180.043,120.915z"/>
						<path fill="#62799D" d="M178.551,120.044c-0.363,0.729-4.434-0.533-8.997-2.985c-4.563-2.435-7.903-5.059-7.496-5.785
							c0.402-0.72,4.375,0.723,8.906,3.14C175.493,116.847,178.929,119.289,178.551,120.044z"/>
						<path fill="#668BAF" d="M177.06,119.165c-0.296,0.585-3.299-0.313-6.655-2.115c-3.373-1.767-5.796-3.75-5.483-4.319
							c0.325-0.589,3.253,0.451,6.604,2.206C174.862,116.728,177.361,118.57,177.06,119.165z"/>
						<path fill="#6A9FC2" d="M175.571,118.29c-0.226,0.44-2.169-0.099-4.317-1.25c-2.152-1.138-3.705-2.419-3.466-2.859
							c0.232-0.428,2.159,0.146,4.301,1.279C174.228,116.606,175.796,117.853,175.571,118.29z"/>
						
							<ellipse transform="matrix(0.8835 0.4684 -0.4684 0.8835 74.6558 -67.1733)" fill="#6DB3D7" cx="172.378" cy="116.507" rx="1.932" ry="0.153"/>
						
							<ellipse transform="matrix(-0.8839 -0.4677 0.4677 -0.8839 271.4659 300.9155)" fill="#71CDF4" cx="173.082" cy="116.764" rx="0.537" ry="0.287"/>
					</g>
					<g>
						<path fill="#4A285A" d="M114.391,83.97c-0.736,1.254-8.557-2.002-17.582-6.956c-9.035-4.816-16.019-10.076-15.279-11.297
							c0.726-1.283,8.591,1.788,17.795,6.695C108.458,77.426,115.122,82.726,114.391,83.97z"/>
						<path fill="#4F3966" d="M113.24,83.194c-0.663,1.134-7.648-1.757-15.704-6.183c-8.058-4.323-14.255-8.953-13.606-10.079
							c0.634-1.142,7.685,1.548,15.875,5.941C107.947,77.347,113.893,82.08,113.24,83.194z"/>
						<path fill="#544972" d="M112.081,82.419c-0.587,1.008-6.733-1.516-13.811-5.408c-7.083-3.831-12.504-7.833-11.939-8.865
							c0.545-0.999,6.776,1.309,13.959,5.193C107.433,77.268,112.659,81.427,112.081,82.419z"/>
						<path fill="#58597F" d="M110.926,81.649c-0.509,0.876-5.817-1.273-11.925-4.639C92.9,73.672,88.248,70.29,88.73,69.359
							c0.461-0.859,5.868,1.066,12.04,4.444C106.928,77.196,111.433,80.776,110.926,81.649z"/>
						<path fill="#5D688D" d="M109.765,80.876c-0.433,0.748-4.902-1.028-10.031-3.866c-5.121-2.857-9.011-5.635-8.607-6.44
							c0.39-0.735,4.968,0.818,10.125,3.696C106.416,77.123,110.2,80.124,109.765,80.876z"/>
						<path fill="#62799D" d="M108.609,80.106c-0.358,0.621-3.994-0.786-8.143-3.096c-4.148-2.31-7.273-4.611-6.936-5.252
							c0.334-0.635,4.03,0.647,8.202,2.97C105.904,77.051,108.971,79.478,108.609,80.106z"/>
						<path fill="#668BAF" d="M107.446,79.336c-0.287,0.5-3.075-0.553-6.246-2.325c-3.178-1.757-5.536-3.578-5.271-4.072
							c0.277-0.517,3.09,0.489,6.282,2.254C105.396,76.972,107.73,78.841,107.446,79.336z"/>
						<path fill="#6A9FC2" d="M106.285,78.576c-0.212,0.373-2.16-0.33-4.347-1.563c-2.204-1.214-3.82-2.501-3.615-2.877
							c0.205-0.377,2.16,0.302,4.372,1.521C104.889,76.894,106.498,78.204,106.285,78.576z"/>
						<path fill="#6DB3D7" d="M105.12,77.815c-0.039,0.068-1.056-0.435-2.268-1.12c-1.219-0.685-2.179-1.275-2.14-1.346
							c0.037-0.066,1.058,0.415,2.278,1.1C104.203,77.134,105.159,77.747,105.12,77.815z"/>
						<path fill="#71CDF4" d="M103.955,77.054c0.068-0.121-0.072-0.328-0.304-0.459c-0.241-0.136-0.484-0.146-0.552-0.025
							c-0.067,0.119,0.067,0.324,0.308,0.46C103.638,77.161,103.888,77.173,103.955,77.054z"/>
					</g>
					<g>
						<path fill="#4A285A" d="M42.967,43.352c-0.624,1.046-7.322-1.773-14.843-6.397c-7.541-4.612-13.132-9.202-12.488-10.255
							c0.642-1.05,7.272,1.837,14.811,6.449C37.97,37.773,43.609,42.283,42.967,43.352z"/>
						<path fill="#4F3966" d="M42.1,42.74c-0.56,0.938-6.584-1.595-13.353-5.757c-6.781-4.148-11.808-8.277-11.231-9.222
							c0.578-0.945,6.541,1.65,13.321,5.797C37.607,37.722,42.678,41.779,42.1,42.74z"/>
						<path fill="#544972" d="M41.23,42.126c-0.499,0.833-5.849-1.418-11.857-5.112c-6.025-3.686-10.49-7.351-9.977-8.191
							c0.514-0.841,5.809,1.464,11.833,5.149C37.238,37.667,41.745,41.271,41.23,42.126z"/>
						<path fill="#58597F" d="M40.363,41.514c-0.437,0.728-5.111-1.24-10.364-4.47c-5.269-3.223-9.167-6.425-8.719-7.158
							c0.449-0.735,5.072,1.278,10.34,4.5C36.875,37.617,40.814,40.767,40.363,41.514z"/>
						<path fill="#5D688D" d="M39.491,40.896c-0.375,0.624-4.371-1.058-8.869-3.824c-4.507-2.757-7.848-5.5-7.464-6.128
							s4.346,1.096,8.853,3.853C36.51,37.563,39.876,40.259,39.491,40.896z"/>
						<path fill="#62799D" d="M38.625,40.284c-0.313,0.52-3.636-0.881-7.377-3.181c-3.75-2.294-6.528-4.575-6.208-5.098
							c0.319-0.522,3.613,0.912,7.363,3.206C36.144,37.511,38.945,39.755,38.625,40.284z"/>
						<path fill="#668BAF" d="M37.755,39.669c-0.251,0.415-2.898-0.703-5.888-2.541c-2.988-1.828-5.206-3.648-4.951-4.065
							c0.254-0.417,2.885,0.727,5.873,2.555C35.779,37.457,38.011,39.248,37.755,39.669z"/>
						<path fill="#6A9FC2" d="M36.892,39.059c-0.188,0.311-2.167-0.527-4.396-1.897c-2.235-1.367-3.893-2.727-3.702-3.04
							c0.19-0.311,2.154,0.545,4.39,1.913C35.413,37.404,37.083,38.745,36.892,39.059z"/>
						<path fill="#6DB3D7" d="M36.022,38.445c-0.125,0.205-1.432-0.352-2.903-1.256c-1.473-0.901-2.567-1.799-2.441-2.004
							c0.125-0.206,1.422,0.359,2.895,1.26C35.044,37.35,36.148,38.239,36.022,38.445z"/>
						<path fill="#71CDF4" d="M35.153,37.832c-0.061,0.1-0.694-0.173-1.405-0.609c-0.72-0.44-1.25-0.876-1.189-0.976
							c0.061-0.1,0.69,0.173,1.411,0.614C34.68,37.295,35.213,37.732,35.153,37.832z"/>
					</g>
				</g>
				<g>
					<g>
						<path fill="#4A285A" d="M579.118,121.134c-0.956,1.826,10.011,8.89,25.229,12.445c15.147,3.552,27.728,3.003,27.929,0.976
							c0.231-2.145-11.698-4.973-26.157-8.371C591.653,122.811,580.07,119.209,579.118,121.134z"/>
						<path fill="#4F3966" d="M628.053,133.882c0.232-1.898-10.193-4.62-22.894-7.676c-12.68-3.07-22.973-5.95-23.767-4.252
							c-0.83,1.719,8.856,7.675,22.139,10.895C616.787,136.033,627.84,135.732,628.053,133.882z"/>
						<path fill="#544972" d="M623.838,133.162c0.241-1.725-8.712-4.163-19.638-6.947c-10.908-2.744-19.886-4.912-20.53-3.443
							c-0.715,1.603,7.679,6.473,19.053,9.336C614.089,134.996,623.626,134.761,623.838,133.162z"/>
						<path fill="#58597F" d="M619.633,132.369c0.225-1.442-7.212-3.818-16.391-6.146c-9.173-2.298-16.728-4.06-17.297-2.668
							c-0.554,1.319,6.462,5.425,15.977,7.812C611.427,133.774,619.412,133.825,619.633,132.369z"/>
						<path fill="#5D688D" d="M615.445,131.487c0.219-1.239-5.749-3.281-13.157-5.254c-7.43-1.893-13.595-3.146-14.041-1.985
							c-0.459,1.182,5.22,4.425,12.887,6.382C608.774,132.66,615.232,132.721,615.445,131.487z"/>
						<path fill="#62799D" d="M611.274,130.556c0.218-1.085-4.312-2.743-9.953-4.315c-5.651-1.516-10.43-2.258-10.773-1.301
							c-0.364,1.008,3.988,3.395,9.794,4.952C606.135,131.504,611.086,131.518,611.274,130.556z"/>
						<path fill="#668BAF" d="M607.133,129.502c0.174-0.784-2.877-2.188-6.774-3.253c-3.905-1.065-7.219-1.481-7.493-0.662
							c-0.258,0.761,2.704,2.481,6.695,3.571C603.542,130.245,606.945,130.346,607.133,129.502z"/>
						<path fill="#6A9FC2" d="M603.004,128.367c0.151-0.604-1.468-1.549-3.617-2.113c-2.142-0.604-4.005-0.691-4.194-0.086
							c-0.184,0.581,1.409,1.639,3.587,2.254C600.962,128.995,602.854,128.97,603.004,128.367z"/>
						<path fill="#6DB3D7" d="M598.921,127.161c0.111-0.399-0.12-0.79-0.506-0.916c-0.384-0.118-0.781,0.108-0.896,0.502
							c-0.115,0.393,0.099,0.81,0.487,0.929C598.396,127.803,598.812,127.551,598.921,127.161z"/>
						<path fill="#71CDF4" d="M594.87,125.795c-0.061,0.189,1.008,0.689,2.382,1.112c1.367,0.445,2.551,0.545,2.601,0.362
							c0.056-0.201-1.038-0.613-2.397-1.056C596.089,125.793,594.93,125.604,594.87,125.795z"/>
					</g>
					<g>
						<path fill="#4A285A" d="M659.939,136.618c-0.091,1.853,11.064,3.9,24.889,2.698c13.839-1.067,24.518-5.118,24.082-6.943
							c-0.416-1.843-11.337-0.87-24.657,0.149C670.941,133.688,660.018,134.71,659.939,136.618z"/>
						<path fill="#4F3966" d="M662.004,136.533c-0.062,1.724,9.768,3.411,21.926,2.404c12.176-0.89,21.63-4.279,21.276-5.9
							c-0.341-1.694-10.002-1.065-21.769-0.213C671.686,133.802,662.058,134.872,662.004,136.533z"/>
						<path fill="#544972" d="M664.07,136.443c-0.038,1.565,8.473,2.894,18.973,2.114c10.524-0.757,18.713-3.594,18.446-4.991
							c-0.286-1.562-8.652-1.171-18.861-0.44C672.438,133.884,664.103,135.001,664.07,136.443z"/>
						<path fill="#58597F" d="M666.135,136.357c-0.019,1.393,7.161,2.363,16.021,1.82c8.878-0.666,15.824-2.825,15.605-4.167
							c-0.208-1.254-7.305-1.229-15.949-0.581C673.179,133.957,666.149,135.12,666.135,136.357z"/>
						<path fill="#5D688D" d="M668.197,136.271c-0.003,1.152,5.86,1.874,13.083,1.525c7.218-0.643,12.93-2.127,12.759-3.344
							c-0.146-1.013-5.983-1.353-13.037-0.722C673.938,134.069,668.197,135.172,668.197,136.271z"/>
						<path fill="#62799D" d="M670.257,136.099c0.01,0.937,4.552,1.527,10.145,1.314c5.583-0.507,10.013-1.689,9.899-2.616
							c-0.112-0.932-4.64-1.267-10.117-0.768C674.692,134.236,670.247,135.163,670.257,136.099z"/>
						<path fill="#668BAF" d="M672.313,135.905c0.017,0.746,3.245,1.229,7.213,1.078c3.962-0.264,7.108-1.237,7.035-1.957
							c-0.076-0.765-3.295-1.001-7.198-0.74C675.452,134.434,672.298,135.159,672.313,135.905z"/>
						<path fill="#6A9FC2" d="M674.369,135.709c0.013,0.376,1.92,0.609,4.268,0.521c2.34-0.038,4.21-0.634,4.182-0.975
							c-0.031-0.406-1.936-0.419-4.259-0.382C676.229,134.961,674.356,135.336,674.369,135.709z"/>
						<path fill="#6DB3D7" d="M676.415,135.516c0.017,0.368,0.637,0.645,1.369,0.617c0.74-0.028,1.321-0.351,1.299-0.718
							c-0.022-0.368-0.635-0.643-1.369-0.615C676.986,134.828,676.398,135.148,676.415,135.516z"/>
						<path fill="#71CDF4" d="M678.473,135.32c-0.011-0.177-0.719-0.295-1.588-0.262c-0.861,0.032-1.557,0.203-1.549,0.381
							c0.007,0.18,0.716,0.298,1.581,0.266C677.788,135.672,678.482,135.5,678.473,135.32z"/>
					</g>
					<g>
						<path fill="#4A285A" d="M740.988,122.805c0.584,1.578,10.412-0.866,21.104-6.572c10.694-5.629,18.448-11.487,17.693-12.917
							c-0.8-1.518-9.94,2.02-20.478,7.567C748.819,116.48,740.405,121.258,740.988,122.805z"/>
						<path fill="#4F3966" d="M742.556,122.043c0.55,1.419,9.201-0.816,18.681-5.828c9.492-4.96,16.373-10.174,15.678-11.478
							c-0.718-1.337-8.815,1.771-18.172,6.659C749.429,116.322,742.016,120.668,742.556,122.043z"/>
						<path fill="#544972" d="M744.121,121.281c0.511,1.264,7.993-0.766,16.26-5.085c8.292-4.291,14.298-8.866,13.671-10.022
							c-0.639-1.185-7.703,1.508-15.877,5.737C750.039,116.163,743.629,120.077,744.121,121.281z"/>
						<path fill="#58597F" d="M745.678,120.522c0.437,1.051,6.798-0.676,13.85-4.347c7.082-3.626,12.202-7.558,11.656-8.562
							c-0.563-1.041-6.59,1.234-13.577,4.812C750.654,116.045,745.21,119.429,745.678,120.522z"/>
						<path fill="#5D688D" d="M747.213,119.711c0.367,0.86,5.649-0.514,11.462-3.557c5.888-2.955,10.082-6.262,9.633-7.107
							c-0.491-0.91-5.462,0.979-11.27,3.894C751.295,115.948,746.786,118.743,747.213,119.711z"/>
						<path fill="#62799D" d="M748.73,118.882c0.314,0.713,4.507-0.338,9.094-2.749c4.64-2.336,7.996-4.932,7.605-5.66
							c-0.392-0.731-4.373,0.677-8.961,2.985C751.927,115.847,748.368,118.081,748.73,118.882z"/>
						<path fill="#668BAF" d="M750.254,118.051c0.259,0.568,3.355-0.162,6.728-1.943c3.389-1.733,5.898-3.613,5.577-4.214
							c-0.301-0.565-3.294,0.357-6.654,2.077C752.558,115.739,749.96,117.418,750.254,118.051z"/>
						<path fill="#6A9FC2" d="M751.775,117.221c0.047,0.101,1.906-0.589,4.062-1.727c2.162-1.105,3.875-2.101,3.816-2.214
							c-0.06-0.113-1.866,0.692-4.025,1.797C753.476,116.213,751.712,117.091,751.775,117.221z"/>
						<path fill="#6DB3D7" d="M753.295,116.392c0.145,0.295,1.046,0.165,1.993-0.331c0.952-0.486,1.603-1.118,1.456-1.408
							c-0.147-0.29-1.034-0.134-1.982,0.352C753.818,115.498,753.154,116.102,753.295,116.392z"/>
						<path fill="#71CDF4" d="M754.797,115.532c-0.069-0.141-0.346-0.146-0.608-0.012s-0.423,0.364-0.354,0.502
							c0.072,0.146,0.347,0.146,0.609,0.013S754.868,115.675,754.797,115.532z"/>
					</g>
					<g>
						<path fill="#4A285A" d="M814.933,87.558c0.465,1.395,8.556-0.101,18.453-1.439c9.897-1.395,18.139-2.277,18.171-3.771
							c0.052-1.4-8.456-2.885-18.896-1.424C822.211,82.348,814.459,86.212,814.933,87.558z"/>
						<path fill="#4F3966" d="M816.223,87.071c0.41,1.289,7.648,0.021,16.498-1.21c8.845-1.341,16.185-2.255,16.187-3.604
							c0.022-1.255-7.581-2.464-16.866-1.066C822.751,82.492,815.825,85.883,816.223,87.071z"/>
						<path fill="#544972" d="M817.515,86.617c0.342,1.127,6.742,0.129,14.536-1.015c7.793-1.189,14.22-2.192,14.2-3.366
							c-0.007-1.14-6.69-2.014-14.826-0.777C823.287,82.658,817.173,85.533,817.515,86.617z"/>
						<path fill="#58597F" d="M818.814,86.16c0.278,0.963,5.833,0.242,12.563-0.814c6.73-1.067,12.254-2.062,12.215-3.111
							c-0.028-0.973-5.793-1.612-12.782-0.508C823.821,82.826,818.524,85.181,818.814,86.16z"/>
						<path fill="#5D688D" d="M820.119,85.701c0.234,0.856,4.914,0.32,10.578-0.612c5.671-0.947,10.3-1.882,10.247-2.761
							c-0.046-0.851-4.893-1.311-10.75-0.335C824.344,82.957,819.892,84.888,820.119,85.701z"/>
						<path fill="#62799D" d="M821.433,85.293c0.183,0.703,3.993,0.336,8.587-0.46c4.603-0.751,8.321-1.649,8.261-2.384
							c-0.056-0.701-3.966-0.96-8.692-0.189C824.868,83.078,821.252,84.601,821.433,85.293z"/>
						<path fill="#668BAF" d="M822.756,84.89c0.133,0.539,3.065,0.331,6.582-0.295c3.524-0.583,6.354-1.406,6.296-1.95
							c-0.063-0.597-3.052-0.696-6.652-0.1C825.388,83.184,822.616,84.313,822.756,84.89z"/>
						<path fill="#6A9FC2" d="M824.075,84.487c-0.032-0.142,1.938-0.639,4.403-1.098c2.462-0.457,4.5-0.599,4.512-0.5
							c0.02,0.136-1.985,0.464-4.436,0.919C826.101,84.267,824.096,84.577,824.075,84.487z"/>
						<path fill="#6DB3D7" d="M825.4,84.105c0.059,0.277,1.207,0.292,2.565,0.032c1.346-0.274,2.414-0.673,2.371-0.943
							c-0.046-0.291-1.198-0.343-2.558-0.066C826.406,83.391,825.341,83.828,825.4,84.105z"/>
						<path fill="#71CDF4" d="M826.742,83.758c-0.026-0.136,0.164-0.286,0.432-0.337c0.268-0.051,0.507,0.017,0.532,0.153
							c0.024,0.135-0.173,0.287-0.438,0.337S826.769,83.892,826.742,83.758z"/>
					</g>
					<g>
						<path fill="#4A285A" d="M895.907,85.931c-0.079,1.058,7.464,2.896,16.988-0.063c9.979-3.036,14.001-11.668,12.811-11.965
							c-1.118-0.753-5.783,5.248-14.221,7.735C903.242,84.255,895.901,84.563,895.907,85.931z"/>
						<path fill="#4F3966" d="M896.986,85.859c-0.05,0.942,6.738,2.46,15.241-0.104c8.751-2.576,13.172-9.49,11.998-10.083
							c-0.764-0.581-5.65,4.074-13.206,6.258C903.543,84.229,896.972,84.613,896.986,85.859z"/>
						<path fill="#544972" d="M898.065,85.759c-0.029,0.883,6.012,2.043,13.498-0.118c7.684-2.055,11.918-7.78,11.062-8.325
							c-0.726-0.688-5.29,3.127-12.079,4.91C903.857,84.189,898.041,84.69,898.065,85.759z"/>
						<path fill="#58597F" d="M899.142,85.659c-0.01,0.8,5.271,1.644,11.768-0.136c6.624-1.705,10.62-6.152,9.992-6.699
							c-0.605-0.68-4.871,2.187-10.833,3.702C904.169,84.162,899.111,84.75,899.142,85.659z"/>
						<path fill="#5D688D" d="M900.224,85.54c0.01,0.667,4.52,1.312,10.041-0.138c5.549-1.466,9.274-4.66,8.747-5.299
							c-0.395-0.521-4.349,1.383-9.427,2.721C904.494,84.174,900.189,84.74,900.224,85.54z"/>
						<path fill="#62799D" d="M901.296,85.383c0.023,0.576,3.765,1,8.323-0.121c4.593-1.078,7.76-3.547,7.417-4.054
							c-0.318-0.529-3.666,0.902-7.948,1.902C904.819,84.166,901.258,84.739,901.296,85.383z"/>
						<path fill="#668BAF" d="M902.373,85.228c0.029,0.467,3,0.716,6.609-0.138c3.63-0.826,6.242-2.506,6.022-2.928
							c-0.222-0.452-2.986,0.425-6.424,1.204C905.156,84.18,902.332,84.721,902.373,85.228z"/>
						<path fill="#6A9FC2" d="M903.433,85.053c0.028,0.305,2.254,0.5,4.92-0.139c2.675-0.577,4.698-1.619,4.554-1.973
							c-0.126-0.325-2.263,0.129-4.835,0.683C905.508,84.242,903.391,84.632,903.433,85.053z"/>
						<path fill="#6DB3D7" d="M904.501,84.833c0.025,0.204,1.49,0.32,3.234-0.096c1.765-0.321,3.102-0.963,3.029-1.195
							c-0.071-0.228-1.48,0.029-3.203,0.341C905.862,84.291,904.468,84.56,904.501,84.833z"/>
						<path fill="#71CDF4" d="M905.559,84.613c0.017,0.106,0.724,0.145,1.567-0.054c0.847-0.177,1.508-0.415,1.481-0.528
							c-0.027-0.114-0.725-0.065-1.561,0.11C906.214,84.338,905.54,84.488,905.559,84.613z"/>
					</g>
				</g>
				<path fill="#71CDF4" d="M540.664,88.796c-0.571,0.503-7.795-9.222-15.819-27.161c-4.625-8.546-8.059-21.088-19.482-23.509
					c-11.383-2.826-26.134,2.132-40.606,8.594c-29.217,13.394-51.319,30.614-67.585,41.521
					c-16.133,11.237-26.021,17.204-26.391,16.646l-2.942,2.01c0.616,0.938,13.396-6.851,31.227-19.357
					c17.9-12.3,41.033-29.312,65.895-40.368c12.234-5.385,26.538-10.991,38.893-8.871c6.023,1.119,10.694,4.73,13.562,9.993
					c3.193,5.868,6.011,11.774,8.634,17.43c9.686,23.421,23.974,36.8,24.638,35.749C547.029,97.489,543.581,93.355,540.664,88.796z"
					/>
				<path fill="#71CDF4" d="M392.538,73.078l8.283-4.43c1.996-1.769,3.898-4.368,21.73-14.051
					c16.247-8.662,37.136-17.741,58.945-21.109c10.771-1.576,21.771-0.657,28.334,4.322c6.683,4.868,7.372,11.851,9.117,17.812
					c2.945,12.948,2.423,15.513,1.063,13.228l0.712,2.454c2.978,4.826,2.18-2.102-0.575-14.308
					c-1.822-6.132-2.52-13.816-8.954-19.043c-6.393-5.467-17.248-6.668-27.294-5.463c-22.218,2.863-43.333,12.012-59.863,20.648
					C406.396,62.536,396.187,69.655,392.538,73.078z"/>
				<path fill="#71CDF4" d="M541.857,64.902c0.686,2.375-1.25,1.507-9.266-9.726c-3.95-4.691-7.42-12.406-15.881-18.13
					c-8.566-5.399-19.377-4.139-28.966-0.568c-21.189,8.498-37.122,20.894-48.991,29.739c-11.863,9.163-19.836,15.581-22.839,17.124
					l-5.45,5.231c4.87-2.518,18.274-14.264,33.766-25.884c15.427-11.626,33.94-22.631,45.955-26.312
					c9.66-3.315,20.686-3.482,28.481,2.941c7.451,6.737,10.868,13.67,14.902,18.691c7.77,10.985,10.996,13.431,9.613,8.976
					L541.857,64.902z"/>
			</g>
		</g>
	</g>
</g>
</svg>
