<?xml version="1.0" encoding="utf-8"?>
<!-- Generator: Adobe Illustrator 14.0.0, SVG Export Plug-In . SVG Version: 6.00 Build 43363)  -->
<!DOCTYPE svg PUBLIC "-//W3C//DTD SVG 1.1//EN" "http://www.w3.org/Graphics/SVG/1.1/DTD/svg11.dtd">
<svg version="1.1" id="Layer_1" xmlns="http://www.w3.org/2000/svg" xmlns:xlink="http://www.w3.org/1999/xlink" x="0px" y="0px"
	 width="1000px" height="215px" viewBox="0 0 1000 215" enable-background="new 0 0 1000 215" xml:space="preserve">
<g>
	<g>
		<path d="M0.113,6.549C-11.324,32.583-14.972,63.074-16.298,91.27c-0.668,14.212,1.214,28.561,5.479,42.124
			c3.781,12.025,9.959,25.185,20.341,32.823c18.855,13.873,45.377-1.204,59.499-14.913c20.507-19.908,32.25-46.553,41.532-73.108
			c2.495-7.137,4.817-14.331,6.885-21.604c1.935-6.804,2.486-13.958,5.017-20.595c5.041-13.223,23.773-11.492,34.338-7.763
			c21.003,7.411,29.458,28.368,28.519,49.116c-0.998,22.031-9.453,43.473-17.313,63.808c-6.655,17.217-15.422,35.355-16.908,54.012
			c-1.859,23.346,27.864,19.724,42.41,14.779c22.771-7.739,42.081-24.701,58.763-41.467c40.118-40.318,65.514-90.525,80.6-145.021
			c2.988-10.792,6.147-21.81,7.441-32.96c0.921-7.939,1.719-15.896,3.639-23.674c1.739-7.044,5.533-17.776,14.761-14.891
			c10.303,3.221,17.6,14.925,21.762,24.145c9.123,20.209,9.92,43.947,9.409,65.755c-0.778,33.212-9.144,65.732-13.512,98.54
			c-1.842,13.835-3.378,28.088-2.088,42.041c0.808,8.735,3.397,17.446,9.262,24.138c14.688,16.758,43.407,12.232,62.06,6.852
			c14.112-4.071,26.673-11.485,39.188-18.968c12.183-7.284,23.589-15.807,34.349-25.048c21.937-18.842,40.732-41.201,56.928-65.095
			c8.947-13.201,16.687-27.309,24.2-41.361c3.692-6.905,7.072-13.933,10.534-20.947c3.624-7.34,9.793-18.471,19.177-17.883
			c11.134,0.698,19.869,14.135,24.824,22.795c7.531,13.166,8.991,29.583,9.397,44.415c0.658,24.014-2.447,48.19,1.683,72.042
			c1.481,8.557,4.396,17.25,10.614,23.544c6.207,6.281,15.045,7.754,23.511,7.324c23.399-1.19,43.782-17.968,59.212-34.136
			c18.138-19.007,32.805-41.742,42.646-66.074c5.766-14.255,9.827-29.154,13.592-44.04c3.819-15.104,6.274-31.413,12.092-45.893
			c1.177-2.93,2.962-5.767,5.719-7.419c3.655-2.193,7.989,0.49,10.953,2.587c6.678,4.725,10.989,15.054,14.034,22.333
			c6.032,14.422,7.86,31.219,9.559,46.644c3.55,32.244,2.352,65.468,1.093,97.834c-0.926,23.824-3.795,51.729,9.758,72.806
			c12.714,19.771,35.751,13.949,52.729,3.576c21.972-13.424,39.899-32.535,54.088-53.866c31.93-48,45.742-107.775,48.498-164.696
			c0.57-11.767-2.134-24.202,0.506-35.763c0.606-2.659,1.605-5.611,4.592-5.701c1.895-0.057,3.761,0.384,5.512,1.068
			c3.362,1.312,5.766,4.266,7.543,7.284c4.192,7.12,5.123,16.22,5.656,24.289c0.558,8.444,0.233,16.944-0.332,25.378
			c-0.598,8.913-1.55,17.772-1.931,26.702c-0.661,15.538-0.469,33.108-8.678,46.887c-0.557,0.935,1.412,0.965,1.85,0.23
			c10.914-18.321,7.951-42.449,9.806-62.893c1.407-15.505,2.603-31.335,0.112-46.793c-1.082-6.711-3.113-13.873-7.887-18.935
			c-3.034-3.218-10.16-6.464-14.602-4.316c-2.736,1.323-3.652,6.897-4.12,9.492c-1.06,5.89-0.451,12.102-0.041,18.025
			c1.07,15.458-0.77,31.278-2.678,46.611c-6.997,56.228-25.876,114.468-64.479,157.14c-8.899,9.837-19.013,18.565-30.008,25.979
			c-10.196,6.873-22.521,13.334-35.186,12.205c-14.081-1.255-21.947-14.94-25.649-27.095c-3.976-13.053-4.013-27.168-3.726-40.685
			c0.644-30.265,2.174-60.521,1.175-90.803c-0.536-16.249-2.113-32.466-5.388-48.401c-1.48-7.207-2.601-14.102-5.184-21.057
			c-2.52-6.784-6.064-13.163-10.09-19.158c-4.515-6.727-13.879-12.682-20.972-6.112c-2.883,2.671-4.514,6.882-5.564,10.56
			c-2.225,7.786-4.188,15.651-6.134,23.511c-7.742,31.269-15.27,62.513-32.036,90.407c-13.293,22.116-30.553,43.217-51.938,57.911
			c-18.315,12.585-50.127,22.455-62.169-3.023c-4.212-8.911-5.182-19.28-5.812-28.984c-0.796-12.265-0.493-24.494-0.142-36.771
			c0.749-26.184,0.596-53.805-16.362-75.319c-5.422-6.878-13.271-14.043-22.662-12.988c-4.639,0.521-7.305,3.385-10.107,6.801
			c-4.755,5.794-7.756,12.31-11.086,18.946c-14.504,28.907-30.772,56.864-51.218,82c-18.908,23.246-41.08,43.941-66.347,60.122
			c-25.125,16.091-56.907,32.245-87.618,24.024c-23.767-6.361-25.582-31.411-24.447-52.045
			c1.878-34.14,10.721-67.445,14.362-101.383c2.444-22.78,2.402-46.645-2.697-69.075c-2.336-10.278-6.197-20.351-12.481-28.879
			c-4.161-5.646-11.476-13.184-19.056-13.359c-13.842-0.32-15.672,22.305-16.894,31.861c-3.044,23.809-9.202,46.836-17.077,69.536
			c-18.468,53.231-50.032,101.928-94.453,137.104c-10.507,8.32-22.042,15.634-34.698,20.189c-10.311,3.711-28.092,7.414-36.83-1.416
			c-6.769-6.839-2.226-20.076-0.149-27.966c2.434-9.246,6.046-18.198,9.502-27.097c7.792-20.062,16.05-40.191,19.986-61.447
			c3.344-18.062,2.661-38.029-10.423-52.208c-11.504-12.466-35.246-20.747-49.94-8.98c-3.386,2.711-4.941,6.546-6.097,10.593
			c-2.104,7.366-3.151,14.939-5.365,22.303c-4.542,15.109-9.877,30.084-16.541,44.391c-12.05,25.872-30.604,53.014-59.302,61.672
			c-33.74,10.178-47.95-30.281-51.442-56.318c-2.328-17.354,0.005-34.97,2.225-52.213C-8.906,41.816-5.414,23.569,1.962,6.778
			C2.411,5.757,0.462,5.753,0.113,6.549L0.113,6.549z"/>
	</g>
</g>
<g>
	<g>
		<path d="M58.389,65.831c16.238-21.402,40.84-35.894,64.938-46.838c27.639-12.552,56.86-14.549,86.648-16.998
			c9.891-0.813,20.709-2.441,30.18,1.371c1.799,0.724,6.232,2.973,5.175,5.498c-1.158,2.766-2.525,5.441-3.944,8.081
			c-3.347,6.227-7.462,12.016-11.823,17.566c-16.182,20.59-36.991,36.927-55.401,55.393c-10.819,10.852-22.893,20.506-31.625,33.274
			c-2.521,3.687-6.627,10.093-4.16,14.748c1.575,2.973,8.434,0.796,11.153,0.516c6.689-0.689,13.316-1.959,19.86-3.482
			c27.597-6.424,53.467-19.132,78.444-32.172c26.258-13.709,52.333-27.758,78.689-41.285c26.638-13.672,53.457-27.217,80.74-39.563
			c12.693-5.744,25.249-11.776,38.249-16.812c6.742-2.612,13.629-4.823,20.634-6.614c3.985-1.019,8.032-1.777,12.099-2.382
			c4.174-0.621,2.139,4.224,1.661,6.934c-2.299,13.019-8.718,25.102-15.278,36.417c-6.181,10.66-12.634,21.21-19.045,31.733
			c-12.322,20.225-28.724,42.002-28.235,66.831c0.006,0.314,0.153,0.448,0.422,0.583c25.238,12.557,53.189,5.64,78.839-1.812
			c29.179-8.478,58.107-17.363,86.724-27.608c58.165-20.824,115.37-44.591,175.171-60.511c7.126-1.897,14.708-3.068,21.632-5.573
			c8.138-2.945,16.653-4.715,25.258-5.528c4.201-0.396,8.433-0.405,12.645-0.248c4.926,0.184,8.729,0.153,11.682,4.497
			c4.333,6.376,5.118,13.986,3.395,21.349c-0.8,3.413-2.82,6.3-3.471,9.705c-0.739,3.876-1.792,7.695-2.91,11.477
			c-2.153,7.28-4.877,14.389-7.522,21.5c-5.068,13.624-10.004,27.393-11.209,41.984c-0.031,0.369,0.308,0.606,0.646,0.635
			c23.173,1.921,43.54-15.308,61.43-27.619c25.642-17.646,52.29-33.647,79.951-47.925c14.179-7.319,28.824-13.337,44.145-17.831
			c11.597-3.401,25.714-8.277,37.039-1.597c14.472,8.536,10.812,31.993,9.015,45.676c-0.721,5.48-1.609,10.937-2.319,16.418
			c-0.128,0.993,1.845,0.734,1.959-0.145c2.049-15.827,6.159-32.621,2.482-48.502c-1.511-6.524-5.168-12.226-11.154-15.411
			c-8.365-4.451-17.988-2.65-26.7-0.596c-57.079,13.459-105.377,49.645-153.501,81.277c-11.286,7.419-23.978,14.505-37.785,15.009
			c-3.013,0.11-3.216-0.207-2.93-2.939c0.178-1.703,0.461-3.393,0.74-5.081c0.562-3.398,1.394-6.75,2.274-10.078
			c2.074-7.836,4.947-15.457,7.767-23.048c5.065-13.64,8.841-27.582,13.505-41.293c1.703-5.006,1.82-10.278,0.672-15.397
			c-0.605-2.697-4.069-12.201-7.231-12.612c-14.447-1.875-28.768-0.774-42.773,3.224c-14.922,4.26-30.018,7.976-44.94,12.314
			c-29.157,8.478-57.786,18.694-86.252,29.231c-57.513,21.29-114.87,43.685-174.509,58.473c-14.646,3.632-29.821,5.683-44.785,2.85
			c-3.814-0.723-7.504-1.953-11.106-3.375c-4.243-1.674-4.485-3.306-4.166-7.568c0.539-7.177,2.848-14.147,5.552-20.765
			c5.167-12.646,12.763-24.213,19.952-35.768c7.035-11.308,13.845-22.795,20.642-34.249c8.446-14.234,16.055-29.49,17.237-46.256
			c0.034-0.475-0.492-0.686-0.895-0.64c-29.174,3.332-56.253,17.382-82.469,29.744C369.958,37.94,340.71,52.478,311.74,67.547
			C285.984,80.945,260.512,94.939,234.584,108c-26.235,13.215-53.879,25.115-83.251,28.829c-3.252,0.412-6.522,0.654-9.795,0.831
			c-1.9,0.104-1.893-2.1-1.843-3.557c0.125-3.693,2.498-7.37,4.462-10.348c4.848-7.35,11.226-13.746,17.486-19.883
			c13.865-13.591,28.185-26.738,42.318-40.05c9.612-9.054,18.953-18.419,27.221-28.734c3.565-4.447,6.815-9.133,9.793-13.99
			c1.105-1.802,8.014-12.147,6.74-13.926c-4.837-6.758-14.051-7.466-21.679-7.559c-10.62-0.128-21.531,1.231-32.112,2.019
			c-27.352,2.037-53.512,7.432-78.296,19.419C93.712,31.651,71.66,45.627,56.77,65.253C56.025,66.235,57.851,66.54,58.389,65.831
			L58.389,65.831z"/>
	</g>
</g>
<path fill="none" d="M16.458,25.355c25.233,15.421,50,30.841,75.701,44.393c57.009,29.907,116.355,78.972,184.112,72.897
	c71.962-6.074,118.691-66.355,179.907-96.729c19.626-9.346,52.804-23.832,65.42,0.935c8.879,16.822,13.552,34.112,26.169,49.065
	c22.896,28.037,63.084,35.514,97.196,38.317c31.775,2.804,62.616-0.467,92.523-11.682c21.962-8.411,41.588-21.963,63.084-31.309
	c26.635-11.683,49.532-12.15,77.57-8.412c14.485,1.87,36.448,4.673,46.261-9.813"/>
<text transform="matrix(0.9456 -0.3252 0.3252 0.9456 308.4043 136.1465)"><tspan x="0" y="0" font-family="'MyriadPro-Regular'" font-size="12">T</tspan><tspan x="6.207" y="0.043" font-family="'MyriadPro-Regular'" font-size="12" rotate="-2.864">W</tspan><tspan x="16.629" y="-0.514" font-family="'MyriadPro-Regular'" font-size="12" rotate="-5.847">O</tspan><tspan x="24.909" y="-1.404" font-family="'MyriadPro-Regular'" font-size="12" rotate="-7.411"> </tspan><tspan x="27.407" y="-1.723" font-family="'MyriadPro-Regular'" font-size="12" rotate="-8.282">t</tspan><tspan x="31.288" y="-2.255" font-family="'MyriadPro-Regular'" font-size="12" rotate="-9.871">w</tspan><tspan x="39.934" y="-3.779" font-family="'MyriadPro-Regular'" font-size="12" rotate="-11.575">o</tspan><tspan x="46.343" y="-5.108" font-family="'MyriadPro-Regular'" font-size="12" rotate="-12.472"> </tspan><tspan x="48.808" y="-5.641" font-family="'MyriadPro-Regular'" font-size="12" rotate="-13.24">T</tspan><tspan x="54.595" y="-6.981" font-family="'MyriadPro-Regular'" font-size="12" rotate="-14.505">W</tspan><tspan x="64.382" y="-9.527" font-family="'MyriadPro-Regular'" font-size="12" rotate="-15.651">O</tspan><tspan x="72.314" y="-11.764" font-family="'MyriadPro-Regular'" font-size="12" rotate="-16.178"> </tspan><tspan x="74.738" y="-12.465" font-family="'MyriadPro-Regular'" font-size="12" rotate="-16.444">t</tspan><tspan x="78.555" y="-13.584" font-family="'MyriadPro-Regular'" font-size="12" rotate="-16.86">w</tspan><tspan x="86.982" y="-16.144" font-family="'MyriadPro-Regular'" font-size="12" rotate="-17.169">o</tspan><tspan x="93.273" y="-18.089" font-family="'MyriadPro-Regular'" font-size="12" rotate="-17.266">T</tspan><tspan x="98.985" y="-19.869" font-family="'MyriadPro-Regular'" font-size="12" rotate="-17.19">W</tspan><tspan x="108.666" y="-22.864" font-family="'MyriadPro-Regular'" font-size="12" rotate="-16.825">O</tspan><tspan x="116.556" y="-25.242" font-family="'MyriadPro-Regular'" font-size="12" rotate="-16.475"> </tspan><tspan x="118.982" y="-25.961" font-family="'MyriadPro-Regular'" font-size="12" rotate="-16.214">t</tspan><tspan x="122.773" y="-27.079" font-family="'MyriadPro-Regular'" font-size="12" rotate="-15.589">w</tspan><tspan x="131.256" y="-29.439" font-family="'MyriadPro-Regular'" font-size="12" rotate="-14.641">o</tspan><tspan x="137.609" y="-31.087" font-family="'MyriadPro-Regular'" font-size="12" rotate="-13.979"> </tspan><tspan x="140.054" y="-31.707" font-family="'MyriadPro-Regular'" font-size="12" rotate="-13.292">T</tspan><tspan x="145.792" y="-33.094" font-family="'MyriadPro-Regular'" font-size="12" rotate="-11.808">W</tspan><tspan x="155.678" y="-35.15" font-family="'MyriadPro-Regular'" font-size="12" rotate="-9.809">O</tspan><tspan x="163.785" y="-36.519" font-family="'MyriadPro-Regular'" font-size="12" rotate="-8.49"> </tspan><tspan x="166.274" y="-36.885" font-family="'MyriadPro-Regular'" font-size="12" rotate="-7.962">t</tspan><tspan x="170.133" y="-37.421" font-family="'MyriadPro-Regular'" font-size="12" rotate="-5.635">w</tspan><tspan x="178.868" y="-38.274" font-family="'MyriadPro-Regular'" font-size="12" rotate="-3.57">o</tspan><tspan x="185.353" y="-38.68" font-family="'MyriadPro-Regular'" font-size="12" rotate="-1.208">T</tspan><tspan x="191.164" y="-38.9" font-family="'MyriadPro-Regular'" font-size="12" rotate="2.917">W</tspan><tspan x="201.068" y="-38.391" font-family="'MyriadPro-Regular'" font-size="12" rotate="9.79">O</tspan><tspan x="209.014" y="-36.897" font-family="'MyriadPro-Regular'" font-size="12" rotate="15.444"> </tspan><tspan x="211.331" y="-36.293" font-family="'MyriadPro-Regular'" font-size="12" rotate="19.613">t</tspan><tspan x="214.857" y="-35.33" font-family="'MyriadPro-Regular'" font-size="12" rotate="29.913">w</tspan><tspan x="222.051" y="-31.137" font-family="'MyriadPro-Regular'" font-size="12" rotate="46.224">o</tspan><tspan x="226.23" y="-26.555" font-family="'MyriadPro-Regular'" font-size="12" rotate="56.994"> </tspan><tspan x="227.582" y="-24.786" font-family="'MyriadPro-Regular'" font-size="12" rotate="66.802">T</tspan><tspan x="229.94" y="-19.774" font-family="'MyriadPro-Regular'" font-size="12" rotate="81.383">W</tspan><tspan x="231.408" y="-9.828" font-family="'MyriadPro-Regular'" font-size="12" rotate="84.178">O</tspan><tspan x="232.219" y="-1.629" font-family="'MyriadPro-Regular'" font-size="12" rotate="85.001"> </tspan><tspan x="232.438" y="0.887" font-family="'MyriadPro-Regular'" font-size="12" rotate="85.16">t</tspan><tspan x="232.755" y="4.842" font-family="'MyriadPro-Regular'" font-size="12" rotate="84.7">w</tspan><tspan x="233.576" y="13.673" font-family="'MyriadPro-Regular'" font-size="12" rotate="82.748">o</tspan><tspan x="234.445" y="20.463" font-family="'MyriadPro-Regular'" font-size="12" rotate="79.95">T</tspan><tspan x="235.475" y="26.789" font-family="'MyriadPro-Regular'" font-size="12" rotate="74.945">W</tspan><tspan x="238.372" y="37.079" font-family="'MyriadPro-Regular'" font-size="12" rotate="68.805">O</tspan><tspan x="241.612" y="45.09" font-family="'MyriadPro-Regular'" font-size="12" rotate="64.421"> </tspan><tspan x="242.804" y="47.605" font-family="'MyriadPro-Regular'" font-size="12" rotate="61.836">t</tspan><tspan x="244.811" y="51.526" font-family="'MyriadPro-Regular'" font-size="12" rotate="56.995">w</tspan><tspan x="249.954" y="59.294" font-family="'MyriadPro-Regular'" font-size="12" rotate="51.633">o</tspan><tspan x="254.255" y="64.633" font-family="'MyriadPro-Regular'" font-size="12" rotate="48.725"> </tspan><tspan x="256.044" y="66.717" font-family="'MyriadPro-Regular'" font-size="12" rotate="46.216">T</tspan><tspan x="260.396" y="71.341" font-family="'MyriadPro-Regular'" font-size="12" rotate="41.918">W</tspan><tspan x="268.289" y="78.348" font-family="'MyriadPro-Regular'" font-size="12" rotate="37.688">O</tspan><tspan x="275.003" y="83.461" font-family="'MyriadPro-Regular'" font-size="12" rotate="35.534"> </tspan><tspan x="277.168" y="85.015" font-family="'MyriadPro-Regular'" font-size="12" rotate="34.326">t</tspan><tspan x="280.575" y="87.391" font-family="'MyriadPro-Regular'" font-size="12" rotate="32.167">w</tspan><tspan x="288.172" y="92.135" font-family="'MyriadPro-Regular'" font-size="12" rotate="29.907">o</tspan><tspan x="293.831" y="95.383" font-family="'MyriadPro-Regular'" font-size="12" rotate="28.33">T</tspan><tspan x="299.028" y="98.218" font-family="'MyriadPro-Regular'" font-size="12" rotate="26.55">W</tspan><tspan x="308.052" y="102.708" font-family="'MyriadPro-Regular'" font-size="12" rotate="24.853">O</tspan><tspan x="315.539" y="106.151" font-family="'MyriadPro-Regular'" font-size="12" rotate="24.012"> </tspan><tspan x="317.862" y="107.186" font-family="'MyriadPro-Regular'" font-size="12" rotate="23.806">t</tspan><tspan x="321.44" y="108.8" font-family="'MyriadPro-Regular'" font-size="12" rotate="22.367">w</tspan><tspan x="329.566" y="112.126" font-family="'MyriadPro-Regular'" font-size="12" rotate="20.537">o</tspan><tspan x="335.714" y="114.408" font-family="'MyriadPro-Regular'" font-size="12" rotate="19.416"> </tspan><tspan x="338.06" y="115.253" font-family="'MyriadPro-Regular'" font-size="12" rotate="18.353">T</tspan><tspan x="343.641" y="117.147" font-family="'MyriadPro-Regular'" font-size="12" rotate="16.278">W</tspan><tspan x="353.307" y="119.951" font-family="'MyriadPro-Regular'" font-size="12" rotate="13.818">O</tspan><tspan x="361.31" y="121.883" font-family="'MyriadPro-Regular'" font-size="12" rotate="12.335"> </tspan><tspan x="363.769" y="122.426" font-family="'MyriadPro-Regular'" font-size="12" rotate="11.428">t</tspan><tspan x="367.626" y="123.245" font-family="'MyriadPro-Regular'" font-size="12" rotate="9.618">w</tspan><tspan x="376.51" y="124.726" font-family="'MyriadPro-Regular'" font-size="12" rotate="7.344">o</tspan><tspan x="383.166" y="125.576" font-family="'MyriadPro-Regular'" font-size="12" rotate="5.476">T</tspan><tspan x="389.325" y="126.207" font-family="'MyriadPro-Regular'" font-size="12" rotate="3.047">W</tspan><tspan x="399.663" y="126.73" font-family="'MyriadPro-Regular'" font-size="12" rotate="0.286">O</tspan><tspan x="408.023" y="126.73" font-family="'MyriadPro-Regular'" font-size="12" rotate="-1.298"> </tspan><tspan x="410.675" y="126.674" font-family="'MyriadPro-Regular'" font-size="12" rotate="-2.916">t</tspan><tspan x="414.847" y="126.498" font-family="'MyriadPro-Regular'" font-size="12" rotate="-5.112">w</tspan><tspan x="423.635" y="125.687" font-family="'MyriadPro-Regular'" font-size="12" rotate="-7.124">o</tspan><tspan x="430.146" y="124.856" font-family="'MyriadPro-Regular'" font-size="12" rotate="-8.026"> </tspan><tspan x="432.647" y="124.512" font-family="'MyriadPro-Regular'" font-size="12" rotate="-8.68">T</tspan><tspan x="438.529" y="123.62" font-family="'MyriadPro-Regular'" font-size="12" rotate="-9.425">W</tspan><tspan x="448.549" y="121.944" font-family="'MyriadPro-Regular'" font-size="12" rotate="-9.482">O</tspan><tspan x="456.689" y="120.592" font-family="'MyriadPro-Regular'" font-size="12" rotate="-9.123"> </tspan><tspan x="459.197" y="120.187" font-family="'MyriadPro-Regular'" font-size="12" rotate="-8.765">t</tspan><tspan x="463.08" y="119.561" font-family="'MyriadPro-Regular'" font-size="12" rotate="-7.753">w</tspan><tspan x="471.768" y="118.389" font-family="'MyriadPro-Regular'" font-size="12" rotate="-5.993">o</tspan><tspan x="478.271" y="117.708" font-family="'MyriadPro-Regular'" font-size="12" rotate="-4.214">T</tspan><tspan x="484.089" y="117.21" font-family="'MyriadPro-Regular'" font-size="12" rotate="-0.839">W</tspan><tspan x="494.09" y="117.088" font-family="'MyriadPro-Regular'" font-size="12" rotate="3.398">O</tspan><tspan x="502.252" y="117.636" font-family="'MyriadPro-Regular'" font-size="12" rotate="6.011"> </tspan><tspan x="504.714" y="117.884" font-family="'MyriadPro-Regular'" font-size="12" rotate="7.596">t</tspan><tspan x="508.567" y="118.329" font-family="'MyriadPro-Regular'" font-size="12" rotate="10.718">w</tspan><tspan x="517.114" y="119.982" font-family="'MyriadPro-Regular'" font-size="12" rotate="14.337">o</tspan><tspan x="523.435" y="121.634" font-family="'MyriadPro-Regular'" font-size="12" rotate="16.358"> </tspan><tspan x="525.813" y="122.304" font-family="'MyriadPro-Regular'" font-size="12" rotate="18.109">T</tspan><tspan x="531.397" y="124.077" font-family="'MyriadPro-Regular'" font-size="12" rotate="21.077">W</tspan><tspan x="540.791" y="127.729" font-family="'MyriadPro-Regular'" font-size="12" rotate="23.841">O</tspan><tspan x="548.287" y="131.079" font-family="'MyriadPro-Regular'" font-size="12" rotate="25.139"> </tspan><tspan x="550.565" y="132.143" font-family="'MyriadPro-Regular'" font-size="12" rotate="25.812">t</tspan><tspan x="554.109" y="133.878" font-family="'MyriadPro-Regular'" font-size="12" rotate="26.18">w</tspan><tspan x="562.12" y="137.819" font-family="'MyriadPro-Regular'" font-size="12" rotate="23.952">o</tspan></text>
<path fill="none" stroke="#000000" d="M30.009,17.878c111.215,86.916,172.43,166.356,201.869,111.215s18.225-72.43,21.963-88.318
	s25.233-49.065,63.551,8.878s38.448,92.863,58.71,101.338s-24.131,36.979,51.57,11.746s77.103,12.617,117.757-44.859
	c40.654-57.477,12.15-90.654,42.057-68.692s-1.401,8.679,47.196,45.695s49.532,47.655,66.354,53.083s4.673,34.696,50.935,24.969
	s15.42,40.739,72.43-14.868s72.431-88.785,86.449-106.542s-3.271-81.776,27.103-22.897s24.767,73.831,24.767,82.71
	s-1.869,20.19-7.477,31.824s-20.094,20.98-42.523,24.719s-33.646,13.911-67.29,16.769s-112.15,9.866-123.832,7.062
	s-91.121-9.813-100.467-13.084s-144.859-23.364-156.542-27.103s-31.308-17.599-58.411-50.388s-66.355-58.49-74.767-62.229
	s-92.523-25.234-105.14-23.832s-77.975-15.928-98.567,13.531S55.71,138.799,62.252,147.965s5.14,16.643,21.028,25.054
	s142.056,25.234,163.551,24.767s96.262-6.074,124.299-6.542s35.514-2.337,53.738-2.337s42.056-2.804,51.869-2.804"/>
</svg>
